# xmcd
# 
# Track frame offsets:
#     150
#     18819
#     41296
#     46595
#     62853
#     86125
#     105503
#     120918
#     142551
#     165325
#     198945
#     231754
#     256629
# 
# Disc length: 3809
# 
# Revision: 2
# Processed by: cddbd v1.5.2PL0 Copyright (c) Steve Scherf et al.
# Submitted via: fre:ac v1.0.17
# 
DISCID=890edf0d
DTITLE=eminob - LIKE A RAINBOW
DYEAR=2010
DGENRE=Jazz
TTITLE0=I wanna be with you
TTITLE1=Night and Day
TTITLE2=ピクニック
TTITLE3=グリーングリーン
TTITLE4=Moon River
TTITLE5=There's No Answer
TTITLE6=My Favorite Things
TTITLE7=さくら横丁
TTITLE8=夢樹
TTITLE9=TRUE COLORS
TTITLE10=万有引力II
TTITLE11=MUSIC IS
TTITLE12=くちびるに太陽
EXTD=YEAR: 2010
EXTT0=
EXTT1=
EXTT2=
EXTT3=
EXTT4=
EXTT5=
EXTT6=
EXTT7=
EXTT8=
EXTT9=
EXTT10=
EXTT11=
EXTT12=
PLAYORDER=
